<svg width="33" height="32" viewBox="0 0 33 32" fill="none" xmlns="http://www.w3.org/2000/svg">
<rect x="0.5" width="32" height="32" rx="8" fill="black"/>
<path d="M5.46558 20.6898C5.46558 20.6898 7.44664 19.8621 10.9828 19.8621C16.5001 19.8621 20.9139 23.1724 27.5345 23.1724" stroke="white" stroke-width="1.5" stroke-linecap="round" stroke-linejoin="round"/>
<path d="M5.46558 26.4827H27.5345" stroke="white" stroke-width="1.5" stroke-linecap="round" stroke-linejoin="round"/>
<path d="M17.1555 6.87201C14.0155 7.7725 11.9745 10.8716 12.091 14.2071C12.1152 14.8999 12.1273 15.2463 12.4234 15.3994C12.7194 15.5526 13.0266 15.3356 13.6411 14.9012L15.0111 13.9332C15.2169 13.7878 15.4612 13.7177 15.7073 13.7335L18.9251 13.9403L21.6153 12.0392C21.8211 11.8938 22.0653 11.8238 22.3115 11.8396L23.9902 11.9474C24.7105 11.9937 25.0707 12.0169 25.2494 11.7396C25.4283 11.4623 25.2829 11.1625 24.9921 10.5628C23.5463 7.58073 20.3128 5.96658 17.1555 6.87201Z" fill="white"/>
<path d="M19.2587 13.7932L21.4656 22.0691M16.8154 6.62078L16.5001 5.51733" stroke="white" stroke-width="1.5" stroke-linecap="round" stroke-linejoin="round"/>
</svg>
